<svg width="60" height="61" xmlns="http://www.w3.org/2000/svg">

 <g>
  <title>background</title>
  <rect fill="none" id="canvas_background" height="63" width="62" y="-1" x="-1"/>
 </g>
 <g>
  <title>Layer 1</title>
  <path id="svg_3" fill="#7C7C7C" d="m24.510411,30.499993c0,3.1714 2.571,5.7422 5.742,5.7422c3.171,0 5.742,-2.5708 5.742,-5.7422c0,-3.1714 -2.571,-5.7422 -5.742,-5.7422c-3.171,0 -5.742,2.5708 -5.742,5.7422z"/>
  <path id="svg_4" fill="#7C7C7C" d="m16.823411,20.340293c0.276,-0.748 0.716,-1.425 1.289,-1.9807c0.555,-0.5722 1.232,-1.0126 1.98,-1.2886c0.607,-0.2358 1.519,-0.5164 3.199,-0.5929c1.817,-0.0828 2.361,-0.1007 6.961,-0.1007c4.6,0 5.145,0.0174 6.961,0.1003c1.68,0.0769 2.592,0.3575 3.199,0.5933c0.748,0.276 1.425,0.7164 1.98,1.2886c0.573,0.5557 1.013,1.2323 1.289,1.9807c0.236,0.607 0.517,1.5193 0.593,3.1989c0.083,1.8164 0.101,2.3611 0.101,6.9612c0,4.5996 -0.018,5.1443 -0.101,6.9612c-0.076,1.6795 -0.357,2.5914 -0.593,3.1984c-0.276,0.7484 -0.716,1.425 -1.288,1.9807c-0.556,0.5722 -1.232,1.0126 -1.981,1.2886c-0.607,0.2362 -1.519,0.5168 -3.199,0.5933c-1.816,0.0828 -2.36,0.1002 -6.961,0.1002c-4.6,0 -5.145,-0.0174 -6.961,-0.1002c-1.679,-0.0765 -2.592,-0.3571 -3.199,-0.5933c-1.502,-0.5795 -2.689,-1.7669 -3.269,-3.2693c-0.236,-0.607 -0.516,-1.5189 -0.593,-3.1984c-0.083,-1.8169 -0.1,-2.3616 -0.1,-6.9612c0,-4.6001 0.017,-5.1448 0.1,-6.9612c0.076,-1.6796 0.357,-2.5919 0.593,-3.1989zm13.429,19.0054c4.886,0 8.846,-3.9601 8.846,-8.8458c0,-4.8857 -3.96,-8.8458 -8.846,-8.8458c-4.885,0 -8.846,3.9601 -8.846,8.8458c0,4.8857 3.961,8.8458 8.846,8.8458zm-9.196,-15.9741c1.142,0 2.068,-0.9256 2.068,-2.0672c0,-1.1417 -0.926,-2.0673 -2.068,-2.0673c-1.141,0 -2.067,0.9256 -2.067,2.0673c0.001,1.1416 0.926,2.0672 2.067,2.0672z"/>
  <path id="svg_5" fill="#7C7C7C" d="m30.252411,0.499993c16.566,0 30,13.434 30,30c0,16.566 -13.434,30 -30,30c-16.566,0 -30,-13.434 -30,-30c0,-16.566 13.434,-30 30,-30zm-17.123,37.1022c0.084,1.8338 0.375,3.0858 0.801,4.1817c0.895,2.314 2.724,4.1432 5.038,5.0381c1.096,0.4257 2.348,0.7169 4.181,0.8007c1.837,0.0837 2.424,0.1039 7.103,0.1039c4.678,0 5.265,-0.0202 7.102,-0.1039c1.834,-0.0838 3.086,-0.375 4.181,-0.8007c1.15,-0.4326 2.191,-1.1105 3.052,-1.9871c0.876,-0.8602 1.554,-1.9016 1.987,-3.051c0.425,-1.0955 0.717,-2.3479 0.8,-4.1812c0.085,-1.8375 0.105,-2.4244 0.105,-7.1027c0,-4.6783 -0.02,-5.2652 -0.104,-7.1022c-0.084,-1.8338 -0.375,-3.0858 -0.801,-4.1817c-0.432,-1.1494 -1.111,-2.1908 -1.987,-3.051c-0.86,-0.8766 -1.902,-1.5545 -3.051,-1.9871c-1.096,-0.4257 -2.348,-0.7169 -4.182,-0.8007c-1.837,-0.0837 -2.424,-0.1039 -7.102,-0.1039c-4.678,0 -5.265,0.0202 -7.102,0.1044c-1.834,0.0833 -3.086,0.3745 -4.182,0.7997c-1.149,0.4326 -2.191,1.111 -3.051,1.9876c-0.876,0.8606 -1.555,1.9016 -1.987,3.051c-0.426,1.0959 -0.717,2.3479 -0.801,4.1817c-0.084,1.837 -0.104,2.4239 -0.104,7.1022c0,4.6783 0.02,5.2652 0.104,7.1022z"/>
 </g>
</svg>